# xmcd
#
# Track frame offsets:
#	150
#	18348
#	44353
#	63114
#	82177
#	103252
#	124722
#	143477
#	164183
#	183384
#	206309
#	229626
#	249587
#	269700
#	288382
#	310414
#
# Disc length: 4410 seconds
#
# Revision: 0
# Processed by: cddbd v1.5.1PL0 Copyright (c) Steve Scherf et al.
# Submitted via: dBpowerAMP V4.0
#
DISCID=ea113810
DTITLE=VA - Sir Charles Jones and Friends - A Southern Soul Party
DYEAR=2004
DGENRE=Southern Soul
TTITLE0=The Same Thing It Took To Get Her - Sir Charles Jones
TTITLE1=The Letter (Guilty) - Sir Charles Jones
TTITLE2=You Got To Roll It Slow - The Love Doctor
TTITLE3=Somebody Lied On Me - Robert Hill
TTITLE4=Put That Thing In Motion - Sorrento Ussery
TTITLE5=Trials And Tribulations - Sir Charles Jones
TTITLE6=Come And Whip That Thang - The Love Doctor
TTITLE7=It's A Cruel World - Wilton Lombard
TTITLE8=Sophisicated Freak - Terry Wright
TTITLE9=Let me Take You Out - Sorrento Ussery
TTITLE10=I Will Always Love You - Wilton Lombard
TTITLE11=Your Love - Terry Wright
TTITLE12=Sex Machine - Robert Hill
TTITLE13=B.Y.O.P. - Robert Hill
TTITLE14=There's No One Like Mama - The Love Doctor
TTITLE15=Take Care Of Me - Joyful
EXTD=
EXTT0=
EXTT1=
EXTT2=
EXTT3=
EXTT4=
EXTT5=
EXTT6=
EXTT7=
EXTT8=
EXTT9=
EXTT10=
EXTT11=
EXTT12=
EXTT13=
EXTT14=
EXTT15=
PLAYORDER=
